<svg width="500" height="400" viewBox="0 0 500 400" fill="none" xmlns="http://www.w3.org/2000/svg">
  <!-- Background Elements -->
  <circle cx="250" cy="200" r="150" fill="#E3F2FD" opacity="0.5"/>
  
  <!-- Person -->
  <circle cx="200" cy="150" r="40" fill="#BBDEFB"/>
  <rect x="180" y="190" width="40" height="100" rx="10" fill="#BBDEFB"/>
  <rect x="160" y="200" width="20" height="80" rx="5" fill="#BBDEFB"/>
  <rect x="220" y="200" width="20" height="80" rx="5" fill="#BBDEFB"/>
  <rect x="180" y="290" width="15" height="40" rx="5" fill="#BBDEFB"/>
  <rect x="205" y="290" width="15" height="40" rx="5" fill="#BBDEFB"/>
  
  <!-- Laptop -->
  <rect x="250" y="220" width="120" height="80" rx="5" fill="#90CAF9"/>
  <rect x="250" y="210" width="120" height="10" rx="5" fill="#64B5F6"/>
  <rect x="260" y="230" width="100" height="60" rx="2" fill="#E3F2FD"/>
  
  <!-- Job Icons -->
  <circle cx="300" cy="120" r="25" fill="#64B5F6"/>
  <rect x="290" y="110" width="20" height="20" rx="2" fill="white"/>
  
  <circle cx="350" cy="150" r="20" fill="#42A5F5"/>
  <rect x="340" y="145" width="20" height="10" rx="2" fill="white"/>
  
  <circle cx="380" cy="200" r="30" fill="#2196F3"/>
  <rect x="370" y="190" width="20" height="20" rx="2" fill="white"/>
  
  <!-- Connection Lines -->
  <line x1="240" y1="150" x2="275" y2="120" stroke="#90CAF9" stroke-width="2"/>
  <line x1="240" y1="170" x2="330" y2="150" stroke="#90CAF9" stroke-width="2"/>
  <line x1="240" y1="190" x2="350" y2="200" stroke="#90CAF9" stroke-width="2"/>
  
  <!-- Text Elements (Simplified) -->
  <rect x="270" y="270" width="80" height="10" rx="5" fill="#42A5F5"/>
  <rect x="270" y="250" width="60" height="10" rx="5" fill="#42A5F5"/>
  <rect x="270" y="290" width="40" height="10" rx="5" fill="#42A5F5"/>
</svg>